<svg xmlns="http://www.w3.org/2000/svg" xmlnsxlink="http://www.w3.org/1999/xlink" version="1.1" width="1000" height="1000" viewBox="0 0 1000 1000" xmlspace="preserve">
<desc>Created with Fabric.js 3.5.0</desc>
<defs>
</defs>
<rect x="0" y="0" width="100%" height="100%" fill="#ffffff"/>
<g transform="matrix(1.1364 0 0 1.1364 500.0145 500.0145)" id="576622">
<g style="" vector-effect="non-scaling-stroke">
		<g transform="matrix(1.5625 0 0 1.5625 -72.0734 34.1808)" id="_x32_">
<path style="stroke: none; stroke-width: 1; stroke-dasharray: none; stroke-linecap: butt; stroke-dashoffset: 0; stroke-linejoin: miter; stroke-miterlimit: 4; is-custom-font: none; font-file-url: none; fill: rgb(255,255,255); fill-rule: nonzero; opacity: 1;" transform=" translate(-209.8731, -277.8757)" d="M 50.57 55.239 C 27.758 29.036 -13.992 53.833 4.68 95.145 c 12.438 27.563 36.469 94.922 70.016 143.438 c 33.563 48.516 69.328 43.328 105.453 55.078 l 25.953 13.422 l 177.547 204.204 l 35.906 -31.234 l 0.188 -0.156 c -5.25 -6.047 -166.719 -191.782 -230.563 -265.204 C 125.992 142.02 61.664 68.004 50.57 55.239 z" stroke-linecap="round"/>
</g>
		<g transform="matrix(1.5625 0 0 1.5625 195.1447 -176.3887)" id="_x32_">
<path style="stroke: none; stroke-width: 1; stroke-dasharray: none; stroke-linecap: butt; stroke-dashoffset: 0; stroke-linejoin: miter; stroke-miterlimit: 4; is-custom-font: none; font-file-url: none; fill: rgb(255,255,255); fill-rule: nonzero; opacity: 1;" transform=" translate(-380.8926, -143.1113)" d="M 476.664 93.551 l -61.938 71.266 c -3.969 4.563 -10.859 5.031 -15.422 1.063 l -2.203 -1.906 c -4.531 -3.953 -5.031 -10.844 -1.063 -15.406 l 62.234 -71.594 c 10.219 -11.734 5.375 -22.125 -2.219 -28.719 c -7.578 -6.578 -18.531 -9.938 -28.75 1.813 l -62.234 71.594 c -3.953 4.547 -10.859 5.031 -15.406 1.063 l -2.188 -1.906 c -4.563 -3.953 -5.047 -10.859 -1.094 -15.406 l 61.953 -71.266 c 18.297 -21.031 -12.297 -46.375 -30.156 -25.828 c -21.391 24.594 -59.156 68.031 -59.156 68.031 c -33 37.688 -32.5 55.344 -27.844 80.078 c 3.781 19.938 9.328 34.281 -11.156 57.844 l -30.234 34.781 l 31.719 36.453 l 34.641 -39.844 c 20.469 -23.547 35.453 -20.047 55.719 -19.094 c 25.156 1.203 42.703 -0.766 75.422 -38.672 c 0 0 37.766 -43.469 59.156 -68.063 C 524.305 99.286 494.945 72.536 476.664 93.551 z" stroke-linecap="round"/>
</g>
		<g transform="matrix(1.5625 0 0 1.5625 -190.5024 251.5453)" id="_x32_">
<polygon style="stroke: none; stroke-width: 1; stroke-dasharray: none; stroke-linecap: butt; stroke-dashoffset: 0; stroke-linejoin: miter; stroke-miterlimit: 4; is-custom-font: none; font-file-url: none; fill: rgb(255,255,255); fill-rule: nonzero; opacity: 1;" points="51.6795,-94.297 -84.9765,62.891 -48.8675,94.297 84.9765,-59.641 57.4295,-91.328 "/>
</g>
</g>
</g>
</svg>